<?xml version="1.0" standalone="no"?>
<!DOCTYPE svg PUBLIC "-//W3C//DTD SVG 20010904//EN"
 "http://www.w3.org/TR/2001/REC-SVG-20010904/DTD/svg10.dtd">
<svg version="1.0" xmlns="http://www.w3.org/2000/svg"
 width="256.000000pt" height="256.000000pt" viewBox="0 0 256.000000 256.000000"
 preserveAspectRatio="xMidYMid meet">
<metadata>
Created by potrace 1.14, written by Peter Selinger 2001-2017
</metadata>
<g transform="translate(0.000000,256.000000) scale(0.100000,-0.100000)"
fill="#000000" stroke="none">
<path d="M1145 2203 c-127 -19 -311 -90 -351 -134 -25 -28 -22 -85 7 -109 31
-28 60 -25 142 14 171 82 369 100 545 50 180 -51 359 -187 453 -344 38 -64 89
-190 89 -221 0 -19 -49 -63 -175 -156 -107 -79 -132 -113 -115 -157 12 -33 50
-57 80 -51 31 6 140 79 219 146 21 19 6 -99 -26 -196 -52 -162 -182 -332 -317
-413 -67 -41 -199 -98 -246 -107 -53 -10 -174 -23 -185 -19 -5 1 -32 5 -60 8
-115 11 -200 36 -282 81 -26 15 -49 28 -51 30 -1 1 41 17 95 34 193 64 528
217 565 257 36 42 21 102 -32 124 -28 12 -39 8 -177 -58 -169 -81 -249 -115
-348 -149 -89 -30 -239 -73 -259 -73 -19 0 -89 98 -131 185 -98 204 -102 441
-9 648 51 115 52 130 16 166 -23 24 -36 29 -58 25 -40 -7 -56 -25 -91 -97 -65
-134 -89 -235 -92 -397 -3 -123 -3 -123 -34 -154 -68 -68 -160 -212 -173 -270
-41 -182 70 -296 294 -300 51 -2 122 1 158 6 65 9 66 9 107 -24 95 -76 257
-157 342 -171 17 -3 41 -8 55 -11 57 -13 90 -16 187 -16 146 -1 276 31 416
102 98 49 145 82 226 161 151 147 252 349 277 552 1 11 3 67 4 125 l1 105 50
55 c136 150 193 299 151 400 -6 14 -23 39 -39 55 -70 75 -143 96 -307 91 -67
-2 -131 -6 -144 -9 -17 -5 -39 6 -85 40 -104 76 -237 136 -371 167 -52 12
-262 18 -321 9z m1078 -382 c38 -15 48 -46 30 -96 -15 -43 -73 -135 -86 -135
-4 0 -12 12 -18 27 -19 51 -43 97 -81 160 l-37 62 82 -4 c45 -1 94 -8 110 -14z
m-1750 -1006 c15 -28 34 -60 43 -72 l16 -23 -63 0 c-191 1 -218 56 -106 219
l30 44 26 -59 c14 -33 38 -82 54 -109z"/>
</g>
</svg>
